/* XPM */
static char *load_5[] = {
"8 24 3 1",
"# c #cccccc",
"  c white",
"! c gray94",
"!!!!!!!!",
"!!!!!!!!",
"!!!!!!!!",
"!!!!!!!!",
"!!!!!!!!",
"!!!!!!!!",
"!!!!!!!!",
"!!!!!!!!",
"########",
"########",
"########",
"########",
"########",
"########",
"########",
"########",
"########",
"########",
"########",
"!!!!!!!!",
"!!!!!!!!",
"!!!!!!!!",
"!!!!!!!!",
"!!!!!!!!"
};
