/* XPM */
static char *load_2[] = {
"8 24 3 1",
"! c gray94",
"  c white",
"# c #cccccc",
"!!!!!!!!",
"!!!!!!!!",
"!!!!!!!!",
"!!!!!!!!",
"!!!!!!!!",
"!!!!!!!!",
"!!!!!!!!",
"!!!!!!!!",
"!!!!!!!!",
"!!!!!!!!",
"!!!!!!!!",
"!!!!!!!!",
"!!!!!!!!",
"!!!!!!!!",
"########",
"########",
"########",
"########",
"########",
"!!!!!!!!",
"!!!!!!!!",
"!!!!!!!!",
"!!!!!!!!",
"!!!!!!!!"
};
